<svg version="1.1" id="Layer_1" xmlns="http://www.w3.org/2000/svg" xmlns:xlink="http://www.w3.org/1999/xlink" x="0px" y="0px"
	 width="100%" viewBox="0 0 1024 1024" enable-background="new 0 0 1024 1024" xml:space="preserve">
<path fill="#000000" opacity="1.000000" stroke="none" 
	d="
M528.385620,462.053955 
	C538.146118,461.520508 546.213928,464.282776 552.769958,471.930817 
	C565.685730,456.007721 580.478149,452.723175 597.836914,465.429260 
	C600.910583,439.212036 614.403198,421.696869 639.553528,415.932800 
	C664.486694,410.218536 684.121338,420.203003 698.542480,441.637207 
	C705.086243,436.620026 711.525330,431.913605 719.316406,429.650024 
	C724.126221,428.252625 728.981323,427.026703 733.992981,426.885803 
	C741.636658,426.670837 747.644165,432.004791 747.935364,438.994904 
	C748.195496,445.238953 742.663025,450.675171 735.357788,451.358521 
	C724.654358,452.359772 715.935791,456.686432 709.950806,466.002655 
	C708.201233,468.726013 705.698364,470.406952 702.338745,471.781616 
	C695.863525,474.431030 691.089355,479.807526 687.382996,485.808380 
	C686.396179,487.406219 687.396729,489.356323 688.014038,491.106873 
	C690.576538,498.373627 687.625854,504.633636 684.208008,510.900055 
	C679.348389,497.108246 685.555420,482.402893 680.708557,467.549103 
	C677.141418,474.366882 675.434204,480.737762 673.197327,486.873047 
	C666.296692,505.799927 659.216248,524.673645 652.907166,543.799438 
	C648.700684,556.551270 640.097473,562.323303 627.297058,562.845337 
	C621.142334,563.096313 614.971924,562.956665 608.808594,562.998535 
	C605.970215,563.017822 604.532288,561.813049 604.619019,558.778137 
	C604.747437,554.283081 604.774353,549.776978 604.607910,545.284302 
	C604.483337,541.920837 606.173950,540.893860 609.164734,540.909485 
	C613.996216,540.934814 618.828186,540.881165 623.659912,540.854553 
	C626.984924,540.836304 628.492554,538.918823 627.408020,535.996216 
	C619.789673,515.466431 611.989685,495.003906 603.894836,473.585846 
	C601.634766,479.220734 602.086121,483.878082 602.434448,488.465515 
	C603.496338,502.447449 602.623718,516.443909 602.943054,530.427979 
	C603.039307,534.642151 601.516479,536.517700 597.091736,536.237793 
	C592.444763,535.943787 587.757690,536.007019 583.101685,536.215637 
	C579.214233,536.389771 577.760071,534.846924 577.795776,530.969543 
	C577.906189,518.974121 577.896545,506.974701 577.706787,494.980408 
	C577.593323,487.808044 573.791870,484.076935 567.426270,484.161713 
	C563.054626,484.219940 560.188416,486.372314 558.626953,490.309113 
	C557.444153,493.291168 557.278931,496.446777 557.295105,499.642273 
	C557.348328,510.139313 557.188721,520.638855 557.365662,531.133179 
	C557.428894,534.880310 555.954956,536.213989 552.377319,536.098022 
	C547.883057,535.952393 543.374573,535.909424 538.883789,536.097473 
	C535.035645,536.258606 533.550598,534.785889 533.615479,530.858215 
	C533.791687,520.197205 533.659790,509.531311 533.667480,498.867340 
	C533.669189,496.526520 533.518799,494.229980 532.847168,491.954681 
	C531.124512,486.118652 527.652771,483.648346 521.785400,484.224518 
	C516.911804,484.703094 513.540894,488.110138 513.355591,493.720215 
	C513.042297,503.208252 513.190552,512.710999 513.102112,522.207092 
	C512.953003,538.215454 515.161926,536.000854 499.435760,536.049988 
	C486.410675,536.090698 488.083313,537.791443 488.043884,524.689880 
	C487.988251,506.194733 488.080597,487.698761 487.937225,469.204468 
	C487.903168,464.810242 489.027100,462.670044 493.957764,463.391296 
	C497.380829,463.891998 500.990967,463.845093 504.423706,463.367981 
	C508.959839,462.737579 512.398621,463.292877 513.310974,468.967712 
	C517.833374,465.150421 522.460022,462.640350 528.385620,462.053955 
M651.470337,438.057983 
	C631.376038,433.595398 611.106873,448.199463 608.000793,462.333557 
	C611.481323,463.847900 615.221680,463.330200 618.728699,462.997345 
	C624.504517,462.449066 627.123169,464.838257 628.478516,470.288116 
	C630.041382,476.572205 632.424744,482.652802 634.464355,488.817627 
	C636.631592,495.368408 638.813538,501.914337 641.416809,509.749725 
	C642.722534,506.202545 643.605286,504.066376 644.300659,501.870880 
	C647.719849,491.076324 651.366699,480.341858 654.352722,469.427399 
	C655.730530,464.391418 658.359558,462.776520 663.229309,463.041260 
	C668.275024,463.315582 673.347229,463.102295 679.041077,463.102295 
	C674.422729,449.309052 666.166748,440.746582 651.470337,438.057983 
z"/>
<path fill="#000000" opacity="1.000000" stroke="none" 
	d="
M238.411713,467.460632 
	C256.065918,478.737915 257.952606,515.096008 240.136795,530.350464 
	C230.385361,538.699951 212.180008,539.633179 201.720245,532.206360 
	C200.648987,531.445679 199.621063,530.624023 198.542923,529.807922 
	C195.606461,536.098450 195.606461,536.098450 187.914383,536.091919 
	C173.653610,536.079773 173.659348,536.079773 173.660629,521.968384 
	C173.663132,494.151215 173.778900,466.333038 173.547501,438.517792 
	C173.505219,433.435944 175.101379,431.592865 180.076950,431.941254 
	C184.220505,432.231384 188.410828,432.166748 192.562683,431.937622 
	C196.801971,431.703674 198.516800,433.194458 198.397888,437.656891 
	C198.133133,447.592590 198.315247,457.540161 198.315247,468.308685 
	C211.890808,459.982513 224.976532,459.661224 238.411713,467.460632 
M200.230820,492.026306 
	C197.305222,501.748901 199.584198,509.593506 206.320221,512.986877 
	C213.364609,516.535583 221.646729,514.091980 225.278564,507.393219 
	C229.222626,500.118591 226.883423,489.920319 220.402634,486.135468 
	C213.448441,482.074066 205.250916,484.207153 200.230820,492.026306 
z"/>
<path fill="#000000" opacity="1.000000" stroke="none" 
	d="
M467.945526,482.944885 
	C464.631134,486.856903 458.535217,489.427063 458.624725,493.797607 
	C458.704315,497.682556 463.296234,501.500763 465.963013,505.301727 
	C471.890839,513.750610 477.885864,522.152466 483.785583,530.620789 
	C484.685883,531.913086 486.137146,533.056213 485.718262,535.297974 
	C481.313232,536.886414 476.589966,535.434631 472.101959,536.157532 
	C460.912872,537.960144 453.057220,534.322571 448.317291,523.610840 
	C446.415344,519.312622 442.936127,515.712341 440.132446,511.734314 
	C436.517670,513.071716 435.262451,515.410278 435.335297,518.773682 
	C435.425446,522.934753 435.194397,527.106384 435.384583,531.260498 
	C435.541595,534.690552 434.174957,536.147400 430.765808,536.070679 
	C426.272003,535.969543 421.774048,536.054443 417.277893,536.051514 
	C410.113281,536.046875 409.923859,535.841492 409.924652,528.873535 
	C409.926300,514.386292 409.902344,499.899078 409.897369,485.411835 
	C409.891998,469.758392 410.011963,454.103607 409.825378,438.452393 
	C409.769867,433.796509 411.268768,431.670776 416.124146,431.958374 
	C420.438110,432.213898 424.788696,432.162354 429.107483,431.940979 
	C433.593475,431.711029 435.288727,433.411285 435.198395,438.041992 
	C434.935394,451.525726 435.064026,465.017120 435.040253,478.505493 
	C435.036804,480.469574 435.039795,482.433655 435.039795,485.134491 
	C439.714691,482.530914 442.739288,479.085419 445.168793,475.615356 
	C452.490936,465.156952 462.011841,460.800842 474.618622,462.922699 
	C478.148499,463.516785 481.879028,462.300781 486.668610,464.158783 
	C480.177460,470.670715 474.185516,476.681854 467.945526,482.944885 
z"/>
<path fill="#000000" opacity="1.000000" stroke="none" 
	d="
M803.290344,512.000854 
	C803.291504,518.659607 803.167725,524.822083 803.341492,530.976196 
	C803.441895,534.528992 802.251892,536.221313 798.498047,536.101440 
	C793.176636,535.931335 787.844788,535.969238 782.520020,536.064697 
	C779.301758,536.122375 777.962280,534.535706 777.964783,531.525757 
	C777.982727,510.220154 778.022705,488.914520 778.028198,467.608917 
	C778.028992,464.486816 779.479858,463.073486 782.603088,463.121674 
	C787.096191,463.190979 791.591370,463.115021 796.085571,463.135345 
	C799.427490,463.150421 802.768127,463.221344 802.409302,468.826111 
	C808.104370,464.737122 813.564453,462.578003 819.600220,462.014008 
	C838.167419,460.279175 851.162964,471.913513 851.921997,491.692047 
	C852.425964,504.823334 851.982849,517.989197 852.092773,531.138489 
	C852.123474,534.814819 850.518372,536.218689 846.973206,536.122925 
	C842.315674,535.997070 837.642273,535.885925 832.994507,536.128479 
	C828.500427,536.362915 826.775513,534.695312 826.852661,530.078552 
	C827.047363,518.430969 827.025330,506.772003 826.732666,495.126587 
	C826.523438,486.800812 821.424561,482.524323 813.435486,483.304443 
	C807.424072,483.891418 803.700806,488.241516 803.384827,495.523163 
	C803.154053,500.840485 803.307922,506.174469 803.290344,512.000854 
z"/>
<path fill="#000000" opacity="1.000000" stroke="none" 
	d="
M291.108643,537.256226 
	C258.168243,536.137329 245.247742,501.506348 259.629761,478.748138 
	C268.296448,465.033844 281.666870,460.414520 297.172272,462.066223 
	C311.865540,463.631409 323.074402,470.931824 328.070648,485.321259 
	C333.256927,500.257965 331.134705,514.121643 319.954010,526.075256 
	C312.214752,534.349487 302.431122,537.087036 291.108643,537.256226 
M292.475586,515.685547 
	C299.983185,514.835327 303.572418,511.393921 305.277496,503.411041 
	C306.925171,495.696930 304.098724,487.335022 298.546967,484.509186 
	C294.336029,482.365784 289.814575,482.292419 285.648621,484.654816 
	C280.330750,487.670471 277.857635,496.131927 279.550751,504.413269 
	C280.884064,510.934875 284.850220,514.618591 292.475586,515.685547 
z"/>
<path fill="#000000" opacity="1.000000" stroke="none" 
	d="
M408.393372,499.958038 
	C407.978088,520.460815 395.035461,534.499573 374.625977,537.061096 
	C355.615265,539.447144 338.390411,528.107666 333.421204,509.935150 
	C328.181763,490.774445 336.666565,472.335449 354.176178,464.830719 
	C376.804138,455.132263 401.573090,466.859528 407.617462,490.069977 
	C408.431610,493.196381 408.306580,496.331055 408.393372,499.958038 
M383.622620,501.143585 
	C383.937775,497.944336 383.333618,494.828644 382.437195,491.814117 
	C381.174255,487.567108 378.450653,484.534393 374.017303,483.459564 
	C365.703674,481.444031 359.369171,485.652222 357.523743,494.300354 
	C355.302338,504.710327 359.919220,514.126099 367.984833,515.521973 
	C371.964569,516.210693 375.573364,515.279480 378.655884,512.609985 
	C381.888031,509.810852 382.717072,505.885956 383.622620,501.143585 
z"/>
<path fill="#000000" opacity="1.000000" stroke="none" 
	d="
M726.768311,535.550171 
	C716.722046,532.237915 711.157288,525.022339 709.201599,515.614746 
	C706.476074,502.503937 707.146362,489.141022 708.663818,475.869812 
	C708.812439,474.569641 709.304199,473.286285 709.778015,472.049255 
	C713.070251,463.453491 720.195679,460.219696 728.913879,463.203400 
	C731.529358,464.098511 731.219849,466.167664 731.226990,468.114532 
	C731.271729,480.279419 731.234924,492.444733 731.305542,504.609436 
	C731.334106,509.530365 733.163818,513.322632 738.268982,514.932068 
	C746.765930,517.610840 753.539856,513.032043 753.680664,504.120117 
	C753.864929,492.457825 753.947327,480.784576 753.628601,469.128174 
	C753.493347,464.179901 755.301636,462.604980 759.985229,462.920837 
	C764.298889,463.211761 768.646301,463.012207 772.978821,463.010071 
	C775.833191,463.008636 777.225952,464.302582 777.222290,467.265411 
	C777.195801,488.762299 777.200195,510.259338 777.258484,531.756165 
	C777.267395,535.046204 775.660278,536.147949 772.609802,536.077271 
	C768.445801,535.980774 764.275696,535.956909 760.112671,536.068787 
	C756.764221,536.158813 753.612488,536.155334 753.197510,531.099915 
	C744.903503,537.898743 736.279236,538.497498 726.768311,535.550171 
z"/>
<path fill="#000000" opacity="1.000000" stroke="none" 
	d="
M762.456787,433.739502 
	C761.434143,431.974518 759.159485,432.088074 758.606812,429.676605 
	C761.667114,426.144135 765.533142,426.208466 769.523499,428.021973 
	C774.858398,430.446594 777.744507,436.522186 776.486450,442.063324 
	C775.310425,447.243744 770.328613,451.248840 764.973450,451.319183 
	C759.400879,451.392365 756.105774,449.000916 754.925293,444.023590 
	C755.198914,443.854340 755.508972,443.509277 755.747864,443.553009 
	C764.848877,445.220520 765.796082,443.920868 762.456787,433.739502 
z"/>
<path fill="#000000" opacity="1.000000" stroke="none" 
	d="
M447.092987,611.135864 
	C446.888824,605.257874 446.901550,599.775879 446.764740,594.297485 
	C446.692688,591.411804 447.831268,589.860168 450.802032,589.957947 
	C453.616272,590.050598 456.502045,589.859863 459.224579,590.426697 
	C463.841766,591.388062 466.842529,596.472778 464.449951,600.352417 
	C461.991913,604.338135 461.458252,607.670166 464.356964,611.483337 
	C457.065552,615.501038 458.167725,605.736023 454.127167,605.674377 
	C450.531342,606.587830 454.640686,615.469727 447.092987,611.135864 
M458.593231,599.545532 
	C459.904388,597.773010 459.231476,596.417542 457.508484,595.607605 
	C456.171356,594.979126 454.599579,594.894470 453.266907,595.683960 
	C452.129395,596.357849 452.034180,597.721069 452.431854,598.751648 
	C453.623199,601.839050 455.920593,600.768066 458.593231,599.545532 
z"/>
<path fill="#000000" opacity="1.000000" stroke="none" 
	d="
M534.698975,606.343201 
	C534.369141,607.953003 534.272217,609.280823 534.084412,610.595642 
	C533.882690,612.006958 532.866028,612.518188 531.586914,612.525818 
	C530.087402,612.534790 528.885620,611.924072 528.877136,610.263855 
	C528.846436,604.273926 528.897949,598.283325 528.964600,592.293518 
	C528.969543,591.845032 529.223083,591.142090 529.555908,590.993286 
	C533.880859,589.059448 538.341675,589.405640 542.621033,590.897644 
	C546.254639,592.164429 547.367126,595.306824 547.088440,598.961487 
	C547.039246,599.606628 546.917969,600.424255 546.504761,600.835632 
	C543.077515,604.247620 543.750671,607.827271 546.381897,611.547668 
	C543.123840,613.626526 541.329285,612.605591 539.602356,609.902222 
	C538.527100,608.218872 538.360657,604.964478 534.698975,606.343201 
M541.049438,596.978394 
	C540.436035,595.898926 539.493164,595.333435 538.268860,595.276489 
	C536.980530,595.216492 535.540894,594.954956 534.727478,596.273254 
	C534.109497,597.274780 534.072266,598.523499 534.666626,599.555176 
	C535.584167,601.147644 537.213379,600.752441 538.619629,600.574402 
	C540.251465,600.367798 541.254822,599.395081 541.049438,596.978394 
z"/>
<path fill="#000000" opacity="1.000000" stroke="none" 
	d="
M598.826355,597.145264 
	C598.831238,595.837585 598.811462,595.004150 598.850647,594.173462 
	C598.928955,592.511780 598.820984,590.697693 600.969238,590.169373 
	C603.079895,589.650330 604.449097,590.761108 605.525818,592.422791 
	C607.579102,595.591797 609.645020,598.752747 612.649841,601.688660 
	C612.649841,598.740112 612.630615,595.791382 612.657715,592.843079 
	C612.671936,591.298096 613.359802,590.274231 615.045593,590.314941 
	C616.750305,590.356079 617.326294,591.495728 617.332947,592.984131 
	C617.358154,598.642761 617.354736,604.301636 617.337524,609.960327 
	C617.333679,611.211487 616.936340,612.291687 615.530701,612.569519 
	C613.684998,612.934265 612.285461,612.209717 611.279602,610.661682 
	C609.294861,607.607239 607.313354,604.550720 604.247620,601.546936 
	C604.247620,604.236145 604.271790,606.925659 604.238953,609.614441 
	C604.217773,611.343384 603.470947,612.515015 601.569824,612.499512 
	C599.695374,612.484253 598.901306,611.340881 598.882568,609.604370 
	C598.839478,605.610107 598.843445,601.615295 598.826355,597.145264 
z"/>
<path fill="#000000" opacity="1.000000" stroke="none" 
	d="
M401.606506,604.223389 
	C400.960449,595.175110 405.114960,589.799438 412.391479,589.804016 
	C418.902008,589.808105 423.773651,595.563049 423.236694,602.615601 
	C422.821899,608.063354 418.875092,612.266052 413.500854,612.982727 
	C408.146637,613.696777 403.848145,610.654297 401.606506,604.223389 
M412.444672,607.718140 
	C414.055450,607.742188 415.301636,607.052429 416.284851,605.802124 
	C418.531708,602.945068 417.981323,597.755127 415.046844,596.035828 
	C412.477386,594.530273 409.906372,594.646729 408.087067,597.352173 
	C405.628235,601.008728 407.353973,605.833801 412.444672,607.718140 
z"/>
<path fill="#000000" opacity="1.000000" stroke="none" 
	d="
M520.371826,609.436279 
	C516.876526,607.942078 513.799438,607.115479 511.723694,611.186462 
	C510.842285,612.915039 509.026428,613.208374 507.411835,612.269653 
	C505.881531,611.380066 506.682922,609.945496 507.154480,608.725891 
	C509.245697,603.317322 511.214050,597.855164 513.505310,592.532288 
	C514.960083,589.152649 518.408020,588.862549 519.820374,592.075562 
	C522.597229,598.392517 524.877747,604.927612 527.417297,611.511597 
	C524.007019,613.595398 522.093384,612.403381 520.371826,609.436279 
z"/>
<path fill="#000000" opacity="1.000000" stroke="none" 
	d="
M472.261993,606.146545 
	C474.292206,605.349731 475.919861,605.388916 477.557465,606.728699 
	C479.698486,608.480225 482.013092,608.587952 484.241180,606.598755 
	C483.624939,603.514587 480.932800,603.929260 479.093384,603.495667 
	C474.836182,602.492004 471.845917,600.541687 472.643402,595.733582 
	C473.414032,591.087280 477.053467,589.837830 481.179138,589.799438 
	C486.071014,589.753906 488.580933,591.994629 489.013031,596.565918 
	C486.706970,598.204773 485.091522,596.656189 483.310944,595.415100 
	C482.084656,594.560364 480.612457,593.865906 479.211395,595.092712 
	C478.808563,595.445435 478.485840,596.327209 478.640442,596.797546 
	C479.122498,598.264343 480.563354,598.407898 481.849762,598.747131 
	C483.443390,599.167236 485.152283,599.428772 486.563690,600.207703 
	C490.333679,602.288086 491.266907,606.785034 488.583221,609.953979 
	C486.089355,612.898743 482.609772,613.499207 479.045959,612.826599 
	C475.524200,612.161926 472.239899,610.874512 472.261993,606.146545 
z"/>
<path fill="#000000" opacity="1.000000" stroke="none" 
	d="
M620.666260,596.145630 
	C620.100891,591.329834 622.021484,589.526672 626.337097,589.883423 
	C628.647949,590.074402 630.988281,589.877930 633.309143,589.987549 
	C634.947998,590.064941 636.251648,590.731201 636.143005,592.699097 
	C636.049927,594.383789 634.840027,594.851929 633.424011,595.041260 
	C633.259583,595.063293 633.086731,595.047546 632.929016,595.090576 
	C630.825928,595.664124 627.150269,593.939697 626.842041,596.694153 
	C626.448730,600.208435 630.421570,598.106445 632.250488,599.064453 
	C633.226562,599.575745 633.895142,600.195312 633.904846,601.302734 
	C633.914612,602.413635 633.315735,603.232544 632.267822,603.535706 
	C631.322693,603.809143 630.319397,603.891663 629.337158,604.024292 
	C628.005066,604.204224 626.407837,604.252808 626.618042,606.130432 
	C626.820007,607.934265 628.479919,607.707031 629.765076,607.781738 
	C631.256226,607.868408 632.757324,607.799866 634.246094,607.908386 
	C635.724243,608.016235 636.820618,608.734985 636.847351,610.355835 
	C636.870361,611.744629 635.912842,612.478027 634.658203,612.643066 
	C630.857239,613.142944 627.036865,613.131165 623.231140,612.711121 
	C621.111389,612.477173 620.685669,610.913879 620.688904,609.087402 
	C620.696228,604.933167 620.675049,600.778992 620.666260,596.145630 
z"/>
<path fill="#000000" opacity="1.000000" stroke="none" 
	d="
M430.373199,597.927612 
	C430.419220,600.208618 430.314423,602.051880 430.545563,603.851868 
	C430.850708,606.228210 432.085022,607.949402 434.762634,607.822388 
	C437.377167,607.698425 438.594574,606.067810 438.651093,603.564575 
	C438.725983,600.246521 438.722595,596.926514 438.730316,593.607300 
	C438.734619,591.770996 439.146790,590.170593 441.371155,590.199524 
	C443.469971,590.226746 444.175476,591.693237 444.171753,593.570557 
	C444.164490,597.220154 444.379883,600.895264 444.025513,604.513062 
	C443.505219,609.824524 439.889954,612.970947 434.762604,613.103455 
	C429.752594,613.232971 425.932861,610.174011 425.242188,604.833130 
	C424.777802,601.242432 425.008362,597.551941 425.062897,593.908142 
	C425.091400,592.004761 425.493530,590.069641 428.059692,590.262451 
	C430.367798,590.435913 430.308105,592.308655 430.358521,593.985168 
	C430.393402,595.146057 430.369476,596.308655 430.373199,597.927612 
z"/>
<path fill="#000000" opacity="1.000000" stroke="none" 
	d="
M560.779419,589.908325 
	C563.097046,590.180054 565.682129,589.358704 566.048279,592.193237 
	C566.433777,595.177551 563.877014,594.979980 561.958984,595.244568 
	C559.926147,595.525024 559.800232,596.937256 559.831177,598.543091 
	C559.888855,601.534729 560.003540,604.531921 559.880798,607.518066 
	C559.791504,609.690063 560.463318,612.786621 556.843750,612.596924 
	C553.431885,612.418152 554.104919,609.448425 554.016113,607.220032 
	C553.936707,605.228210 554.009583,603.230347 554.011230,601.235168 
	C554.013733,598.203979 554.356934,595.010803 549.792358,594.952332 
	C548.486511,594.935669 547.788696,593.858643 547.790344,592.522339 
	C547.792419,590.853577 548.874817,590.117981 550.342346,590.063904 
	C553.663269,589.941345 556.988953,589.950378 560.779419,589.908325 
z"/>
<path fill="#000000" opacity="1.000000" stroke="none" 
	d="
M401.469696,591.759155 
	C398.850586,598.087891 393.339752,602.876221 394.135376,610.251892 
	C394.277100,611.565735 393.296600,612.365967 391.948822,612.493408 
	C390.718811,612.609802 389.060028,612.352356 389.163147,611.095642 
	C389.809845,603.214417 383.897675,597.784546 381.322174,590.784424 
	C388.765259,588.007690 388.021606,595.909119 391.686249,597.785950 
	C393.734711,596.486633 394.073944,593.963989 395.453766,592.168274 
	C397.236755,589.847961 399.140717,588.885986 401.469696,591.759155 
z"/>
<path fill="#000000" opacity="1.000000" stroke="none" 
	d="
M501.875671,589.854614 
	C503.513153,589.874512 504.680969,589.865051 505.844666,589.929321 
	C507.508179,590.021240 508.822449,590.659180 508.873138,592.542480 
	C508.917267,594.182678 507.780518,595.057495 506.327545,595.034546 
	C502.466705,594.973694 502.144196,597.353577 502.259735,600.325928 
	C502.376129,603.320862 502.269531,606.324097 502.282288,609.323608 
	C502.290344,611.214355 501.765472,612.682495 499.525696,612.609985 
	C497.346130,612.539429 496.802673,611.043335 496.794678,609.185120 
	C496.781067,606.018982 496.703400,602.850891 496.787781,599.687256 
	C496.858398,597.041077 496.376770,595.060425 493.113525,595.038269 
	C491.428894,595.026794 490.102295,594.101074 490.191406,592.301880 
	C490.304413,590.019348 492.216919,589.988403 493.905792,589.943604 
	C496.404236,589.877380 498.904633,589.883057 501.875671,589.854614 
z"/>
<path fill="#000000" opacity="1.000000" stroke="none" 
	d="
M579.252930,604.502747 
	C579.632996,608.592957 582.504578,607.509583 584.627625,607.724609 
	C586.475159,607.911621 588.661133,607.793640 588.649170,610.340393 
	C588.637085,612.918091 586.358521,612.746582 584.570251,612.896851 
	C573.858521,613.796997 573.635742,613.590881 573.636597,603.017822 
	C573.636841,599.857300 573.663269,596.696838 573.666504,593.536316 
	C573.668396,591.691895 574.105957,590.104004 576.345642,590.165588 
	C578.459045,590.223694 579.112305,591.744202 579.143372,593.587402 
	C579.202209,597.079712 579.205078,600.572937 579.252930,604.502747 
z"/>
<path fill="#000000" opacity="1.000000" stroke="none" 
	d="
M591.448120,590.909912 
	C594.563416,589.453430 595.954529,590.754639 596.025146,593.439819 
	C596.164246,598.729675 596.089966,604.025574 596.064697,609.318848 
	C596.055847,611.172485 595.444702,612.607239 593.217041,612.510193 
	C591.320068,612.427551 590.631836,611.212891 590.678528,609.521729 
	C590.846985,603.421204 590.204712,597.299438 591.448120,590.909912 
z"/>
<path fill="#000000" opacity="1.000000" stroke="none" 
	d="
M644.201904,596.148315 
	C644.067932,598.915100 644.014465,601.231812 643.763428,603.526978 
	C643.624023,604.801819 642.761536,605.617065 641.377808,605.534180 
	C640.206177,605.464050 639.679443,604.613953 639.446838,603.587280 
	C638.594910,599.827637 638.754395,596.023254 639.098450,592.231201 
	C639.216492,590.930725 640.146484,590.162537 641.489685,590.203186 
	C642.776550,590.242126 643.721863,590.927551 643.944397,592.232239 
	C644.137756,593.366150 644.122742,594.535522 644.201904,596.148315 
z"/>
<path fill="#000000" opacity="1.000000" stroke="none" 
	d="
M643.872253,607.543823 
	C644.548462,609.479126 644.994141,611.191772 643.141357,612.246094 
	C641.919434,612.941406 640.492004,612.927124 639.343994,612.079468 
	C638.329163,611.330139 638.092957,610.033875 638.394409,608.892090 
	C639.237610,605.698181 641.564636,606.808899 643.872253,607.543823 
z"/>
</svg>